<?xml version="1.0" encoding="UTF-8" standalone="no"?>
<!DOCTYPE svg PUBLIC "-//W3C//DTD SVG 1.1//EN"
 "http://www.w3.org/Graphics/SVG/1.1/DTD/svg11.dtd">
<!-- Generated by graphviz version 14.1.2 (20260124.0452)
 -->
<!-- Title: LiquidadorGastosPortuariosVertical Pages: 1 -->
<svg width="5033pt" height="7666pt"
 viewBox="0.00 0.00 5033.00 7666.00" xmlns="http://www.w3.org/2000/svg" xmlns:xlink="http://www.w3.org/1999/xlink">
<g id="graph0" class="graph" transform="scale(4.16667 4.16667) rotate(0) translate(4 1835.74)">
<title>LiquidadorGastosPortuariosVertical</title>
<polygon fill="white" stroke="none" points="-4,4 -4,-1835.74 1204,-1835.74 1204,4 -4,4"/>
<g id="clust1" class="cluster">
<title>cluster_inputs</title>
<polygon fill="#eff6ff" stroke="#2563eb" points="221,-1610.14 221,-1823.74 980,-1823.74 980,-1610.14 221,-1610.14"/>
<text xml:space="preserve" text-anchor="middle" x="600.5" y="-1795.04" font-family="Arial Bold" font-size="26.00" fill="#1e3a5f">PASO 1: DOCUMENTOS &amp; DATOS DE ENTRADA A AUDITAR</text>
</g>
<g id="clust2" class="cluster">
<title>cluster_viewer</title>
<polygon fill="#fff7ed" stroke="#f97316" stroke-dasharray="5,2" points="8,-1098.05 8,-1443.39 1192,-1443.39 1192,-1098.05 8,-1098.05"/>
<text xml:space="preserve" text-anchor="middle" x="600" y="-1414.69" font-family="Arial Bold" font-size="26.00" fill="#431407">PASO 2: HERRAMIENTA LIQUIDADOR DE GASTOS PORTUARIOS (VISOR SPLIT&#45;VIEW)</text>
</g>
<g id="clust3" class="cluster">
<title>cluster_comparacion</title>
<polygon fill="#f0fdf4" stroke="#16a34a" stroke-dasharray="5,2" points="184,-717.7 184,-931.3 1016,-931.3 1016,-717.7 184,-717.7"/>
<text xml:space="preserve" text-anchor="middle" x="600" y="-902.6" font-family="Arial Bold" font-size="26.00" fill="#14532d">PASO 3: MOTOR DE AUDITORÍA DUAL &amp; DIVERGENCIAS (Δ P×Q)</text>
</g>
<g id="clust4" class="cluster">
<title>cluster_resolucion</title>
<polygon fill="#f0fdfa" stroke="#0d9488" stroke-dasharray="5,2" points="196,-362.85 196,-550.95 1004,-550.95 1004,-362.85 196,-362.85"/>
<text xml:space="preserve" text-anchor="middle" x="600" y="-522.25" font-family="Arial Bold" font-size="26.00" fill="#042f2e">PASO 4: RESOLUCIÓN Y AUDITORÍA DE TOLERANCIA</text>
</g>
<g id="clust5" class="cluster">
<title>cluster_salida</title>
<polygon fill="#f8fafc" stroke="#475569" stroke-dasharray="5,2" points="192,-8 192,-196.1 1009,-196.1 1009,-8 192,-8"/>
<text xml:space="preserve" text-anchor="middle" x="600.5" y="-167.4" font-family="Arial Bold" font-size="26.00" fill="#0f172a">PASO 5: DOCUMENTACIÓN OFICIAL &amp; ACTA FIRMABLE EN PDF</text>
</g>
<!-- InputsDocs -->
<g id="node1" class="node">
<title>InputsDocs</title>
<polygon fill="#dbeafe" stroke="black" points="912.38,-1777.74 281.62,-1777.74 281.62,-1618.14 918.38,-1618.14 918.38,-1771.74 912.38,-1777.74"/>
<polyline fill="none" stroke="black" points="912.38,-1777.74 912.38,-1771.74"/>
<polyline fill="none" stroke="black" points="918.38,-1771.74 912.38,-1771.74"/>
<text xml:space="preserve" text-anchor="middle" x="600" y="-1728.04" font-family="Arial Bold" font-size="22.00">📄 DOCUMENTOS DE ENTRADA</text>
<text xml:space="preserve" text-anchor="middle" x="600" y="-1702.54" font-family="Arial Bold" font-size="22.00">• PDF Armador (Factura / SOF con ítems de costos)</text>
<text xml:space="preserve" text-anchor="middle" x="600" y="-1677.04" font-family="Arial Bold" font-size="22.00">• PDF Agente Portuario (Cuenta de Gastos por Puerto)</text>
<text xml:space="preserve" text-anchor="middle" x="600" y="-1651.54" font-family="Arial Bold" font-size="22.00">• Cifra Proforma P×Q (Motor P×Q del Sistema)</text>
</g>
<!-- SplitView -->
<g id="node2" class="node">
<title>SplitView</title>
<polygon fill="#fed7aa" stroke="black" stroke-width="3" points="1179.77,-1193.04 1179.77,-1310.4 840.15,-1393.39 359.85,-1393.39 20.23,-1310.4 20.23,-1193.04 359.85,-1110.05 840.15,-1110.05 1179.77,-1193.04"/>
<polygon fill="none" stroke="black" stroke-width="3" points="1183.77,-1189.9 1183.77,-1313.54 840.63,-1397.39 359.37,-1397.39 16.23,-1313.54 16.23,-1189.9 359.37,-1106.05 840.63,-1106.05 1183.77,-1189.9"/>
<text xml:space="preserve" text-anchor="middle" x="600" y="-1294.57" font-family="Arial Bold" font-size="22.00">🔍 VISOR SPLIT&#45;VIEW (LIQUIDADOR DE GASTOS PORTUARIOS)</text>
<text xml:space="preserve" text-anchor="middle" x="600" y="-1269.07" font-family="Arial Bold" font-size="22.00">────────────────────────────</text>
<text xml:space="preserve" text-anchor="middle" x="600" y="-1243.57" font-family="Arial Bold" font-size="22.00">• Panel Izquierdo: PDF Factura Armador / Agente</text>
<text xml:space="preserve" text-anchor="middle" x="600" y="-1218.07" font-family="Arial Bold" font-size="22.00">• Panel Derecho: Matriz de Recálculo P×Q Sistema</text>
<text xml:space="preserve" text-anchor="middle" x="600" y="-1192.57" font-family="Arial Bold" font-size="22.00">• Controles de Zoom, Navegación &amp; Selección de Ítems</text>
</g>
<!-- InputsDocs&#45;&gt;SplitView -->
<g id="edge1" class="edge">
<title>InputsDocs&#45;&gt;SplitView</title>
<path fill="none" stroke="black" stroke-width="2.5" d="M600,-1617.65C600,-1617.65 600,-1412.35 600,-1412.35"/>
<polygon fill="black" stroke="black" stroke-width="2.5" points="603.5,-1412.35 600,-1402.35 596.5,-1412.35 603.5,-1412.35"/>
<text xml:space="preserve" text-anchor="middle" x="718.88" y="-1501.94" font-family="Arial Bold" font-size="16.00"> &#160;1. Carga PDFs &amp; Data Sistema</text>
</g>
<!-- DeltaEngine -->
<g id="node3" class="node">
<title>DeltaEngine</title>
<polygon fill="#dcfce7" stroke="black" points="980.25,-885.3 219.75,-885.3 219.75,-725.7 980.25,-725.7 980.25,-885.3"/>
<text xml:space="preserve" text-anchor="middle" x="600" y="-835.6" font-family="Arial Bold" font-size="22.00">⚖️ COMPARADOR DUAL P×Q (FACTURA REAL vs SISTEMA)</text>
<text xml:space="preserve" text-anchor="middle" x="600" y="-810.1" font-family="Arial Bold" font-size="22.00">• Δ Bunker: Diferencia de Precio VLSFO/LSMGO &amp; Consumo MT</text>
<text xml:space="preserve" text-anchor="middle" x="600" y="-784.6" font-family="Arial Bold" font-size="22.00">• Δ Puertos: Diferencia en Agenciamiento, Practicaje &amp; Remolques</text>
<text xml:space="preserve" text-anchor="middle" x="600" y="-759.1" font-family="Arial Bold" font-size="22.00">• Δ Total P&amp;L: Impacto Neto en USD y USD/MT en la Liquidación</text>
</g>
<!-- SplitView&#45;&gt;DeltaEngine -->
<g id="edge2" class="edge">
<title>SplitView&#45;&gt;DeltaEngine</title>
<path fill="none" stroke="black" stroke-width="2.5" d="M600,-1104.68C600,-1104.68 600,-899.3 600,-899.3"/>
<polygon fill="black" stroke="black" stroke-width="2.5" points="603.5,-899.3 600,-889.3 596.5,-899.3 603.5,-899.3"/>
<text xml:space="preserve" text-anchor="middle" x="688.5" y="-989.85" font-family="Arial Bold" font-size="16.00"> &#160;2. Ejecuta Cotejo Dual</text>
</g>
<!-- Resolucion -->
<g id="node4" class="node">
<title>Resolucion</title>
<polygon fill="#ccfbf1" stroke="black" points="996.38,-504.95 203.62,-504.95 203.62,-500.95 199.62,-500.95 199.62,-496.95 203.62,-496.95 203.62,-378.85 199.62,-378.85 199.62,-374.85 203.62,-374.85 203.62,-370.85 996.38,-370.85 996.38,-504.95"/>
<polyline fill="none" stroke="black" points="203.62,-500.95 207.62,-500.95 207.62,-496.95 203.62,-496.95"/>
<polyline fill="none" stroke="black" points="203.62,-378.85 207.62,-378.85 207.62,-374.85 203.62,-374.85"/>
<text xml:space="preserve" text-anchor="middle" x="600" y="-455.25" font-family="Arial Bold" font-size="22.00">📋 AUDITORÍA DE TOLERANCIA</text>
<text xml:space="preserve" text-anchor="middle" x="600" y="-429.75" font-family="Arial Bold" font-size="22.00">• ✅ APROBADO (Δ dentro de tolerancia contractualmente permitida)</text>
<text xml:space="preserve" text-anchor="middle" x="600" y="-404.25" font-family="Arial Bold" font-size="22.00">• ⚠️ OBJECIÓN (Δ supera tolerancia / Nota de Crédito requerida)</text>
</g>
<!-- DeltaEngine&#45;&gt;Resolucion -->
<g id="edge3" class="edge">
<title>DeltaEngine&#45;&gt;Resolucion</title>
<path fill="none" stroke="black" stroke-width="2.5" d="M600,-725.28C600,-725.28 600,-519.11 600,-519.11"/>
<polygon fill="black" stroke="black" stroke-width="2.5" points="603.5,-519.11 600,-509.11 596.5,-519.11 603.5,-519.11"/>
<text xml:space="preserve" text-anchor="middle" x="681" y="-609.5" font-family="Arial Bold" font-size="16.00"> &#160;3. Evalúa Tolerancia</text>
</g>
<!-- ActaPdf -->
<g id="node5" class="node">
<title>ActaPdf</title>
<polygon fill="#e2e8f0" stroke="black" points="922.88,-144.1 265.12,-144.1 265.12,-22 922.88,-22 934.88,-83.05 922.88,-144.1"/>
<text xml:space="preserve" text-anchor="middle" x="600" y="-100.4" font-family="Arial Bold" font-size="22.00">📄 ACTA DE AUDITORÍA LIQUIDADOR DE GASTOS (PDF)</text>
<text xml:space="preserve" text-anchor="middle" x="600" y="-74.9" font-family="Arial Bold" font-size="22.00">• Título con Nivel ([NIVEL BAJO] / [NIVEL ALTO])</text>
<text xml:space="preserve" text-anchor="middle" x="600" y="-49.4" font-family="Arial Bold" font-size="22.00">• Reporte de Liquidación Firmable con Desglose Granular</text>
</g>
<!-- Resolucion&#45;&gt;ActaPdf -->
<g id="edge4" class="edge">
<title>Resolucion&#45;&gt;ActaPdf</title>
<path fill="none" stroke="black" stroke-width="2.5" d="M600,-370.74C600,-370.74 600,-164.32 600,-164.32"/>
<polygon fill="black" stroke="black" stroke-width="2.5" points="603.5,-164.32 600,-154.32 596.5,-164.32 603.5,-164.32"/>
<text xml:space="preserve" text-anchor="middle" x="673.5" y="-254.65" font-family="Arial Bold" font-size="16.00"> &#160;4. Emite Veredicto</text>
</g>
</g>
</svg>
