<?xml version="1.0" encoding="UTF-8" standalone="no"?>
<!DOCTYPE svg PUBLIC "-//W3C//DTD SVG 1.1//EN"
 "http://www.w3.org/Graphics/SVG/1.1/DTD/svg11.dtd">
<!-- Generated by graphviz version 14.1.2 (20260124.0452)
 -->
<!-- Title: SpaghettiMapVertical Pages: 1 -->
<svg width="4967pt" height="10688pt"
 viewBox="0.00 0.00 4967.00 10688.00" xmlns="http://www.w3.org/2000/svg" xmlns:xlink="http://www.w3.org/1999/xlink">
<g id="graph0" class="graph" transform="scale(4.16667 4.16667) rotate(0) translate(4 2561.07)">
<title>SpaghettiMapVertical</title>
<polygon fill="white" stroke="none" points="-4,4 -4,-2561.07 1188,-2561.07 1188,4 -4,4"/>
<g id="clust1" class="cluster">
<title>cluster_origen</title>
<polygon fill="#eff6ff" stroke="#2563eb" points="291,-2386.47 291,-2549.07 893,-2549.07 893,-2386.47 291,-2386.47"/>
<text xml:space="preserve" text-anchor="middle" x="592" y="-2520.37" font-family="Arial Bold" font-size="26.00" fill="#1e3a5f">PASO 1: DATOS NÁUTICOS &amp; MAPA GEOJSON</text>
</g>
<g id="clust2" class="cluster">
<title>cluster_nodos</title>
<polygon fill="#fff7ed" stroke="#f97316" stroke-dasharray="5,2" points="8,-1846.52 8,-2219.72 1176,-2219.72 1176,-1846.52 8,-1846.52"/>
<text xml:space="preserve" text-anchor="middle" x="592" y="-2191.02" font-family="Arial Bold" font-size="26.00" fill="#431407">PASO 2: CLASIFICACIÓN DE PUERTOS (FUENTES Y SUMIDEROS)</text>
</g>
<g id="clust3" class="cluster">
<title>cluster_engine</title>
<polygon fill="#f0fdf4" stroke="#16a34a" stroke-dasharray="5,2" points="84,-1295.4 84,-1679.77 1100,-1679.77 1100,-1295.4 84,-1295.4"/>
<text xml:space="preserve" text-anchor="middle" x="592" y="-1651.07" font-family="Arial Bold" font-size="26.00" fill="#14532d">PASO 3: MOTOR GEOESPACIAL ECHARTS &amp; ANIMACIÓN DE RUTAS</text>
</g>
<g id="clust4" class="cluster">
<title>cluster_ui</title>
<polygon fill="#f0fdfa" stroke="#0d9488" stroke-dasharray="5,2" points="259,-636.7 259,-1128.65 925,-1128.65 925,-636.7 259,-636.7"/>
<text xml:space="preserve" text-anchor="middle" x="592" y="-1099.95" font-family="Arial Bold" font-size="26.00" fill="#042f2e">PASO 4: INTERFAZ SPAGHETTI MAP V2 &amp; TIMELINE</text>
</g>
<g id="clust5" class="cluster">
<title>cluster_salidas</title>
<polygon fill="#f8fafc" stroke="#475569" stroke-dasharray="5,2" points="190,-8 190,-469.95 994,-469.95 994,-8 190,-8"/>
<text xml:space="preserve" text-anchor="middle" x="592" y="-441.25" font-family="Arial Bold" font-size="26.00" fill="#0f172a">PASO 5: NAVEGACIÓN COMERCIAL Y CONEXIÓN CON MATRIZ</text>
</g>
<!-- OrigenMap -->
<g id="node1" class="node">
<title>OrigenMap</title>
<polygon fill="#dbeafe" stroke="black" points="856.75,-2503.07 321.25,-2503.07 321.25,-2394.47 862.75,-2394.47 862.75,-2497.07 856.75,-2503.07"/>
<polyline fill="none" stroke="black" points="856.75,-2503.07 856.75,-2497.07"/>
<polyline fill="none" stroke="black" points="862.75,-2497.07 856.75,-2497.07"/>
<text xml:space="preserve" text-anchor="middle" x="592" y="-2453.37" font-family="Arial Bold" font-size="22.00">🗺️ MAPA GEOJSON &amp; PUERTOS</text>
<text xml:space="preserve" text-anchor="middle" x="592" y="-2427.87" font-family="Arial Bold" font-size="22.00">(peru_chile_ecuador.json + Latitud/Longitud)</text>
</g>
<!-- PuertosRoles -->
<g id="node2" class="node">
<title>PuertosRoles</title>
<polygon fill="#fed7aa" stroke="black" points="1168.18,-2173.72 251.61,-2173.72 15.82,-1854.52 932.39,-1854.52 1168.18,-2173.72"/>
<text xml:space="preserve" text-anchor="middle" x="592" y="-2044.22" font-family="Arial Bold" font-size="22.00">🥧 BALANCES DE PUERTOS</text>
<text xml:space="preserve" text-anchor="middle" x="592" y="-2018.72" font-family="Arial Bold" font-size="22.00">• Fuentes (Carga / Embarque)</text>
<text xml:space="preserve" text-anchor="middle" x="592" y="-1993.22" font-family="Arial Bold" font-size="22.00">• Sumideros (Descarga / Recepción)</text>
<text xml:space="preserve" text-anchor="middle" x="592" y="-1967.72" font-family="Arial Bold" font-size="22.00">• Pasteles Duales Carga vs Descarga por Nodo</text>
</g>
<!-- OrigenMap&#45;&gt;PuertosRoles -->
<g id="edge1" class="edge">
<title>OrigenMap&#45;&gt;PuertosRoles</title>
<path fill="none" stroke="black" stroke-width="2.5" d="M592,-2394.16C592,-2394.16 592,-2187.95 592,-2187.95"/>
<polygon fill="black" stroke="black" stroke-width="2.5" points="595.5,-2187.95 592,-2177.95 588.5,-2187.95 595.5,-2187.95"/>
<text xml:space="preserve" text-anchor="middle" x="734.12" y="-2278.27" font-family="Arial Bold" font-size="16.00"> &#160;1. Inyecta Coordenadas &amp; GeoJSON</text>
</g>
<!-- EngineSpaghetti -->
<g id="node3" class="node">
<title>EngineSpaghetti</title>
<polygon fill="#dcfce7" stroke="black" stroke-width="3" points="1087.96,-1401.82 1087.96,-1535.35 797.43,-1629.77 386.57,-1629.77 96.04,-1535.35 96.04,-1401.82 386.57,-1307.4 797.43,-1307.4 1087.96,-1401.82"/>
<polygon fill="none" stroke="black" stroke-width="3" points="1091.96,-1398.91 1091.96,-1538.26 798.07,-1633.77 385.93,-1633.77 92.04,-1538.26 92.04,-1398.91 385.93,-1303.4 798.07,-1303.4 1091.96,-1398.91"/>
<text xml:space="preserve" text-anchor="middle" x="592" y="-1524.19" font-family="Arial Bold" font-size="22.00">🚀 ECHARTS SPAGHETTI ENGINE (V2)</text>
<text xml:space="preserve" text-anchor="middle" x="592" y="-1498.69" font-family="Arial Bold" font-size="22.00">────────────────────────────</text>
<text xml:space="preserve" text-anchor="middle" x="592" y="-1473.19" font-family="Arial Bold" font-size="22.00">• Aristas Curvas Bezier (Curvatura 0.3 &#45; 0.75)</text>
<text xml:space="preserve" text-anchor="middle" x="592" y="-1447.69" font-family="Arial Bold" font-size="22.00">• Polyline ECharts Lines para misiles en serie</text>
<text xml:space="preserve" text-anchor="middle" x="592" y="-1422.19" font-family="Arial Bold" font-size="22.00">• Distinción visual LADEN (Carga) vs BALLAST (Lastre)</text>
<text xml:space="preserve" text-anchor="middle" x="592" y="-1396.69" font-family="Arial Bold" font-size="22.00">• Tooltips interactivos de Tonelaje (MT) y NM</text>
</g>
<!-- PuertosRoles&#45;&gt;EngineSpaghetti -->
<g id="edge2" class="edge">
<title>PuertosRoles&#45;&gt;EngineSpaghetti</title>
<path fill="none" stroke="black" stroke-width="2.5" d="M592,-1854.13C592,-1854.13 592,-1649 592,-1649"/>
<polygon fill="black" stroke="black" stroke-width="2.5" points="595.5,-1649 592,-1639 588.5,-1649 595.5,-1649"/>
<text xml:space="preserve" text-anchor="middle" x="709.38" y="-1738.32" font-family="Arial Bold" font-size="16.00"> &#160;2. Calcula Balance por Puerto</text>
</g>
<!-- MapViewer -->
<g id="node4" class="node">
<title>MapViewer</title>
<polygon fill="#ccfbf1" stroke="black" points="847,-1082.65 337,-1082.65 337,-1078.65 333,-1078.65 333,-1074.65 337,-1074.65 337,-982.05 333,-982.05 333,-978.05 337,-978.05 337,-974.05 847,-974.05 847,-1082.65"/>
<polyline fill="none" stroke="black" points="337,-1078.65 341,-1078.65 341,-1074.65 337,-1074.65"/>
<polyline fill="none" stroke="black" points="337,-982.05 341,-982.05 341,-978.05 337,-978.05"/>
<text xml:space="preserve" text-anchor="middle" x="592" y="-1032.95" font-family="Arial Bold" font-size="22.00">🗺️ VISOR MAPA BASE DARK MODE</text>
<text xml:space="preserve" text-anchor="middle" x="592" y="-1007.45" font-family="Arial Bold" font-size="22.00">(GeoJSON con Pan, Zoom y Roam Activo)</text>
</g>
<!-- EngineSpaghetti&#45;&gt;MapViewer -->
<g id="edge3" class="edge">
<title>EngineSpaghetti&#45;&gt;MapViewer</title>
<path fill="none" stroke="black" stroke-width="2.5" d="M592,-1302.15C592,-1302.15 592,-1096.92 592,-1096.92"/>
<polygon fill="black" stroke="black" stroke-width="2.5" points="595.5,-1096.92 592,-1086.92 588.5,-1096.92 595.5,-1096.92"/>
<text xml:space="preserve" text-anchor="middle" x="710.12" y="-1187.2" font-family="Arial Bold" font-size="16.00"> &#160;3. Renderiza Curvas &amp; Misiles</text>
</g>
<!-- TimelineUI -->
<g id="node5" class="node">
<title>TimelineUI</title>
<polygon fill="#ccfbf1" stroke="black" points="826,-753.3 358,-753.3 358,-749.3 354,-749.3 354,-745.3 358,-745.3 358,-652.7 354,-652.7 354,-648.7 358,-648.7 358,-644.7 826,-644.7 826,-753.3"/>
<polyline fill="none" stroke="black" points="358,-749.3 362,-749.3 362,-745.3 358,-745.3"/>
<polyline fill="none" stroke="black" points="358,-652.7 362,-652.7 362,-648.7 358,-648.7"/>
<text xml:space="preserve" text-anchor="middle" x="592" y="-703.6" font-family="Arial Bold" font-size="22.00">⏱️ TIMELINE SLIDER MENSUAL</text>
<text xml:space="preserve" text-anchor="middle" x="592" y="-678.1" font-family="Arial Bold" font-size="22.00">(Navegación Dinámica Mes a Mes)</text>
</g>
<!-- MapViewer&#45;&gt;TimelineUI -->
<g id="edge4" class="edge">
<title>MapViewer&#45;&gt;TimelineUI</title>
<path fill="none" stroke="black" stroke-width="2.5" d="M592,-973.59C592,-973.59 592,-767.4 592,-767.4"/>
<polygon fill="black" stroke="black" stroke-width="2.5" points="595.5,-767.4 592,-757.4 588.5,-767.4 595.5,-767.4"/>
<text xml:space="preserve" text-anchor="middle" x="704.88" y="-857.85" font-family="Arial Bold" font-size="16.00"> &#160;4. Sincroniza Slider Mensual</text>
</g>
<!-- IrMatriz -->
<g id="node6" class="node">
<title>IrMatriz</title>
<polygon fill="#e2e8f0" stroke="black" points="882.62,-417.95 289.38,-417.95 289.38,-336.35 882.62,-336.35 894.62,-377.15 882.62,-417.95"/>
<text xml:space="preserve" text-anchor="middle" x="592" y="-369" font-family="Arial Bold" font-size="22.00">📋 IR A MATRIZ FINANCIERA (Snapshot Comercial)</text>
</g>
<!-- TimelineUI&#45;&gt;IrMatriz -->
<g id="edge5" class="edge">
<title>TimelineUI&#45;&gt;IrMatriz</title>
<path fill="none" stroke="black" stroke-width="2.5" d="M592,-644.4C592,-644.4 592,-438.19 592,-438.19"/>
<polygon fill="black" stroke="black" stroke-width="2.5" points="595.5,-438.19 592,-428.19 588.5,-438.19 595.5,-438.19"/>
<text xml:space="preserve" text-anchor="middle" x="698.88" y="-528.5" font-family="Arial Bold" font-size="16.00"> &#160;5. Selección para Auditoría</text>
</g>
<!-- IrLedger -->
<g id="node7" class="node">
<title>IrLedger</title>
<polygon fill="#cbd5e1" stroke="black" points="856,-103.6 316,-103.6 316,-22 856,-22 868,-62.8 856,-103.6"/>
<text xml:space="preserve" text-anchor="middle" x="592" y="-54.65" font-family="Arial Bold" font-size="22.00">🧪 IR A VOYAGE LEDGER (Auditoría de Viaje)</text>
</g>
<!-- IrMatriz&#45;&gt;IrLedger -->
<g id="edge6" class="edge">
<title>IrMatriz&#45;&gt;IrLedger</title>
<path fill="none" stroke="black" stroke-width="2.5" d="M592,-330.09C592,-330.09 592,-123.71 592,-123.71"/>
<polygon fill="black" stroke="black" stroke-width="2.5" points="595.5,-123.71 592,-113.71 588.5,-123.71 595.5,-123.71"/>
<text xml:space="preserve" text-anchor="middle" x="686.12" y="-214.15" font-family="Arial Bold" font-size="16.00"> &#160;6. Navegación a Ledger</text>
</g>
</g>
</svg>
